# xmcd CD database file
#
# Track frame offsets:
#	150
#	22703
#	39914
#	51866
#	69183
#	89926
#	108486
#	130924
#	151814
#	177061
#	197587
#	223047
#	241295
#	258027
#	290694
#	317997
#
# Disc length: 4258 seconds
#
# Revision: 0
# Processed by: cddbd v1.5.2PL0 Copyright (c) Steve Scherf et al.
# Submitted via: CDex 1.51
#
DISCID=da10a010
DTITLE=Various Artist - The Rough Guide to Salsa Divas [CD1]
DYEAR=2010
DGENRE=Salsa
TTITLE0=Celia Cruz---Yo No Quiero Piedras En Mi Camino
TTITLE1=Graciela Bauzá---Cuando Se Canta Bonito
TTITLE2=Noraida y Los Moré---La Bárbara
TTITLE3=La Lupe---Por Accidente
TTITLE4=Cortijo y Su Combo---Pica, Pica
TTITLE5=Myrta Sila con Joe Quijano y su Conjunto Cachana---Camina Como Chencha
TTITLE6=Choco Orta---La Nueva Reina Del Sabor
TTITLE7=Budda All Stars---Guaguancó De Esquina
TTITLE8=Yoko---Los Hombres Son (Las Mujeres Son)
TTITLE9=Albita---Soy Una Mujer
TTITLE10=Cecila Noël---Tu Condena
TTITLE11=Mimi Ibarra---Descarado
TTITLE12=Aymée Nuviola---La Sonera Del Mundo Un Poco De Salsa
TTITLE13=Conjunto Céspedes---Amor De Millones
TTITLE14=Omara Portuondo---Mueve La Cintura Mulato
TTITLE15=[data]
EXTD=YEAR: 2010
EXTT0=
EXTT1=
EXTT2=
EXTT3=
EXTT4=
EXTT5=
EXTT6=
EXTT7=
EXTT8=
EXTT9=
EXTT10=
EXTT11=
EXTT12=
EXTT13=
EXTT14=
EXTT15=
PLAYORDER=
